<svg width="76" height="76" viewBox="0 0 76 76" fill="none" xmlns="http://www.w3.org/2000/svg">
<path d="M0.00441264 59.4211C0.194116 58.4648 0.31323 57.482 0.595579 56.5521C0.944103 55.4063 1.38086 54.2825 1.87056 53.1851C2.08232 52.7048 2.15291 52.3214 2.00732 51.8057C0.04853 45.0145 -0.216173 38.1924 1.78233 31.3659C3.14554 26.7121 5.59404 22.7546 9.56898 19.8327C9.76751 19.6873 9.89544 19.2421 9.83809 18.9821C9.50722 17.4749 8.85428 16.1043 7.94989 14.8527C7.46019 14.1741 6.95284 13.5042 6.49844 12.8035C5.88962 11.8648 5.96903 10.8556 6.66608 9.99619C7.37636 9.1236 8.42194 8.8063 9.44545 9.23378C10.619 9.72296 11.7704 10.2694 12.9925 10.8203C13.1028 8.23338 12.4322 5.97698 11.0248 3.92771C10.844 3.66328 10.6498 3.40768 10.4822 3.13885C10.0013 2.34117 10.0631 1.40688 10.6322 0.732605C11.2101 0.0495151 12.1101 -0.206093 12.9748 0.181726C16.0851 1.56553 18.8027 2.68492 20.81 6.00783C22.4688 2.85239 25.504 1.55231 28.4996 0.208169C29.3996 -0.197278 30.3216 0.0318869 30.9128 0.732605C31.5172 1.44655 31.5878 2.42932 30.9922 3.25784C29.929 4.72979 29.0599 6.28988 28.7555 8.10117C28.6099 8.96495 28.5702 9.85076 28.4687 10.8732C29.6378 10.3443 30.6613 9.8772 31.6848 9.41446C33.0304 8.80629 34.0671 8.99139 34.8745 9.97856C35.6774 10.9613 35.6598 12.0146 34.7818 13.2177C33.5157 14.9497 32.2539 16.6684 31.7334 18.8147C31.6054 19.3391 31.7201 19.5947 32.1437 19.9032C35.3245 22.2081 37.548 25.2445 38.92 28.9112C39.2641 29.8278 39.0612 30.436 38.3509 30.6784C37.698 30.9032 37.195 30.555 36.8377 29.6604C34.6319 24.156 30.7231 20.4717 24.9658 18.9865C17.1439 16.9637 9.68368 20.388 5.93374 27.5494C3.42789 32.3399 2.52349 37.4829 2.79261 42.8242C2.90731 45.1203 3.38377 47.3987 3.70583 49.6815C3.7323 49.871 3.82053 50.0473 3.89994 50.2985C6.70579 47.6896 9.94839 46.6363 13.7954 47.3767C13.0586 45.4596 11.9601 43.9744 10.394 42.8066C10.0454 42.551 9.69692 42.0486 9.67927 41.6431C9.63957 40.797 10.694 40.321 11.4175 40.8983C12.4101 41.6872 13.3366 42.5774 14.1836 43.5205C14.6998 44.0934 15.0527 44.8294 15.4057 45.5301C15.7454 46.2044 15.988 46.9271 16.2792 47.6455C17.36 47.5177 18.4277 47.3723 19.4997 47.2665C21.1718 47.099 22.7997 47.3061 24.3173 48.0597C24.7982 48.2977 24.9835 48.0201 25.2393 47.7645C29.9069 43.1018 34.5789 38.4392 39.2465 33.7766C47.192 25.8395 55.133 17.9068 63.0785 9.96975C63.9608 9.08834 64.4241 9.08834 65.302 10.0006C71.0107 15.9457 74.4695 22.9749 75.4092 31.1764C77.4915 49.3951 66.2196 66.1021 48.6566 70.8221C47.0993 71.2408 45.7052 71.8137 44.3508 72.7303C39.4847 76.0004 33.0657 75.8858 28.2084 72.6025C27.9481 72.4262 27.6834 72.2456 27.4231 72.0693C26.8937 72.4791 26.4128 72.9022 25.8879 73.2592C23.2011 75.0749 20.2762 75.5729 17.1571 74.6782C16.0983 74.3742 15.1013 74.3786 14.0424 74.6738C11.1837 75.4759 8.48811 75.0264 5.9558 73.506C5.17934 73.0388 4.97199 72.4747 5.32051 71.871C5.67786 71.254 6.32197 71.1614 7.11166 71.633C9.21163 72.889 11.4263 73.2019 13.7777 72.4659C14.9601 72.0957 16.1777 72.0296 17.338 72.4527C20.5365 73.6117 24.6526 72.5629 27.057 68.9359C30.0084 64.4892 29.9422 57.3542 26.8364 53.0044C24.7629 50.1002 21.9526 48.9191 18.41 49.5714C17.8762 49.6683 17.3468 49.7653 16.7115 49.8799C16.7336 50.3558 16.7689 50.8318 16.7733 51.3121C16.7777 51.6515 16.8042 52.0085 16.7159 52.3346C16.5703 52.8811 16.1512 53.1234 15.5954 53.0794C15.066 53.0397 14.7174 52.7356 14.6336 52.2156C14.5586 51.7573 14.488 51.2769 14.5366 50.8186C14.6248 49.9504 14.1439 49.7697 13.4292 49.6639C9.00869 49.0029 5.9955 50.2853 4.02347 53.9079C3.33966 55.1595 2.84555 56.5697 2.54555 57.9668C1.83086 61.3249 2.17056 64.617 3.63083 67.7636C3.96171 68.4731 3.73671 69.1077 3.11907 69.3722C2.53232 69.6234 1.96762 69.3722 1.62792 68.6759C0.829401 67.0497 0.374995 65.3221 0.145587 63.5284C0.114705 63.2861 0.0485287 63.0525 0 62.8145C0.0044117 61.6863 0.00441264 60.5537 0.00441264 59.4211ZM48.9611 68.3674C57.5021 66.3049 68.2975 58.1915 72.0828 45.2921C75.9563 32.0842 71.2887 19.1408 64.2167 12.2085C63.4094 13.0238 62.5976 13.8347 61.7815 14.6588C61.7726 14.6456 61.8123 14.7117 61.8609 14.769C66.0476 19.3744 68.6505 24.7421 69.5593 30.8944C69.7975 32.4941 69.8549 34.1247 69.8946 35.7465C69.9034 36.1167 69.5549 36.6323 69.224 36.8262C68.9637 36.9805 68.3416 36.8703 68.1167 36.6455C67.852 36.3811 67.7372 35.8655 67.7284 35.4556C67.6799 31.5202 66.9211 27.7389 65.3505 24.1296C64.0623 21.1768 62.3241 18.515 60.2329 16.2674C49.4993 26.9897 38.7877 37.69 28.2966 48.1655C33.0833 45.2084 38.3377 44.7236 43.5744 47.7292C48.7846 50.7172 51.1845 55.4239 51.136 61.4527C51.3169 61.3778 51.4713 61.3249 51.6169 61.2544C53.783 60.2188 55.7771 58.9143 57.5947 57.3498C62.5623 53.0882 65.7299 47.7513 67.1196 41.3567C67.2917 40.559 67.799 40.1976 68.4652 40.3342C69.1225 40.4708 69.4755 41.0526 69.2681 41.8194C68.8755 43.2913 68.5358 44.7853 67.9975 46.2044C64.8785 54.4059 59.2756 60.2805 51.2551 63.8634C51.0037 63.9735 50.6904 64.1454 50.5934 64.3658C50.011 65.7055 49.4816 67.0717 48.9611 68.3674ZM28.9452 70.3373C32.7701 73.6382 40.5303 74.3918 45.6346 68.8345C50.4125 63.6342 49.8566 55.4504 44.4435 50.9155C38.9156 46.2837 31.4775 47.7733 28.3319 51.083C32.3201 57.4027 32.4128 63.784 28.9452 70.3373ZM29.6157 18.3035C30.1937 15.6196 31.8172 13.5703 33.2422 11.3712C32.9201 11.3536 32.673 11.402 32.4481 11.5034C30.9922 12.1645 29.5452 12.8431 28.0937 13.5086C27.1628 13.9361 26.3555 13.535 26.3379 12.5743C26.2761 9.1236 26.4879 5.72578 28.6143 2.77747C28.6319 2.75544 28.5966 2.69814 28.5525 2.5483C27.5114 3.14325 26.4614 3.6721 25.482 4.31112C23.2364 5.76985 21.9217 7.79267 21.8776 10.5427C21.8644 11.2875 21.3923 11.7414 20.7482 11.7282C20.135 11.7105 19.7335 11.2698 19.6629 10.5603C19.6012 9.95212 19.5791 9.32632 19.4247 8.74019C18.5424 5.35999 15.7939 3.95855 13.0454 2.64526C13.5792 3.89245 14.3248 5.10438 14.5939 6.41327C14.9865 8.32152 15.0792 10.3003 15.2071 12.257C15.291 13.5527 14.4748 13.9978 13.2836 13.4337C11.8631 12.7594 10.4293 12.1072 8.99987 11.4593C8.81017 11.3712 8.58958 11.3536 8.38223 11.3051C8.33811 11.3668 8.28959 11.4285 8.24547 11.4946C9.79839 13.6144 11.3998 15.7121 11.9601 18.3651C17.8497 15.5799 23.6688 15.5314 29.6157 18.3035Z" fill="#FF7220"/>
<path d="M30.7593 29.4267C31.3681 28.7745 31.8358 28.2368 32.3431 27.7388C32.8725 27.2188 33.5255 27.2011 33.9755 27.6463C34.4343 28.1002 34.4299 28.7392 33.9093 29.2813C33.1637 30.0613 32.4005 30.8281 31.6152 31.5685C31.0417 32.115 30.4902 32.115 29.9211 31.5729C29.1226 30.8105 28.3417 30.0305 27.5785 29.2284C27.0844 28.7128 27.0976 28.109 27.5476 27.6551C27.9755 27.2188 28.6329 27.2055 29.127 27.6815C29.6608 28.1927 30.1373 28.7524 30.7593 29.4267Z" fill="#FF7220"/>
<path d="M15.737 36.4031C16.315 35.7817 16.7826 35.244 17.2856 34.746C17.8458 34.1908 18.512 34.1731 18.9752 34.6535C19.4076 35.103 19.3723 35.7553 18.8561 36.2929C18.1194 37.0509 17.3782 37.8001 16.615 38.5317C16.0282 39.0958 15.4547 39.0914 14.8679 38.5273C14.1091 37.7957 13.3591 37.0465 12.6268 36.2929C12.1018 35.7508 12.0709 35.1162 12.5121 34.6535C12.9753 34.1731 13.6371 34.1952 14.2018 34.7505C14.7047 35.2484 15.1679 35.7861 15.737 36.4031Z" fill="#FF7220"/>
<path d="M25.7254 36.3679C26.3342 35.7333 26.8107 35.2044 27.3224 34.7064C27.8563 34.1908 28.5004 34.182 28.9548 34.6491C29.3915 35.0987 29.4004 35.7156 28.9107 36.2313C28.1474 37.0289 27.3666 37.8134 26.5636 38.5758C26.0166 39.0958 25.4166 39.0782 24.8651 38.545C24.0887 37.7958 23.321 37.0289 22.571 36.2533C22.0549 35.7157 22.0593 35.0766 22.5402 34.6227C22.9902 34.1952 23.6078 34.204 24.1195 34.6932C24.6401 35.1956 25.1298 35.7421 25.7254 36.3679Z" fill="#FF7220"/>
<path d="M20.797 29.4225C21.3529 28.8187 21.8161 28.2766 22.3191 27.7742C22.8661 27.2234 23.5632 27.1969 24.0132 27.6641C24.4455 28.1136 24.4146 28.7746 23.9029 29.3035C23.1661 30.0615 22.4205 30.8063 21.6617 31.5378C21.0529 32.124 20.5235 32.124 19.9235 31.5467C19.1471 30.7975 18.3838 30.0306 17.6294 29.255C17.153 28.7614 17.1353 28.1048 17.5456 27.6729C17.9736 27.2145 18.6706 27.2101 19.1868 27.7081C19.7073 28.2238 20.1926 28.779 20.797 29.4225Z" fill="#FF7220"/>
<path d="M56.2979 41.2686C57.4185 41.8327 58.4332 42.2645 59.342 42.8551C59.5581 42.9961 59.5934 43.785 59.4037 44.0846C59.2184 44.3755 58.5832 44.6267 58.2479 44.5342C57.4096 44.3006 56.6111 43.8863 55.8258 43.4941C55.3273 43.2429 55.1244 42.7317 55.3538 42.2469C55.5303 41.8767 55.9405 41.6211 56.2979 41.2686Z" fill="#FF7220"/>
<path d="M59.2676 36.4913C58.8265 36.4605 58.3809 36.4429 57.9397 36.3944C57.2868 36.3239 56.8809 35.8788 56.9118 35.2706C56.9427 34.6272 57.3309 34.2349 57.9353 34.2217C58.8177 34.1997 59.7088 34.2482 60.5867 34.3672C61.1603 34.4465 61.4735 34.9092 61.4338 35.4953C61.3941 36.0771 61.0323 36.4473 60.4456 36.5134C60.0573 36.5574 59.6603 36.5222 59.2632 36.5222C59.2676 36.5134 59.2676 36.5046 59.2676 36.4913Z" fill="#FF7220"/>
<path d="M57.1056 29.0257C56.3115 28.9992 55.9409 28.7084 55.8041 28.1751C55.6629 27.6286 55.8791 27.1615 56.382 26.9588C57.1982 26.6282 58.0408 26.3418 58.8923 26.1126C59.4261 25.9716 59.8585 26.2448 60.079 26.756C60.3085 27.2717 60.1982 27.8181 59.7129 28.0429C58.8129 28.466 57.8467 28.7524 57.1056 29.0257Z" fill="#FF7220"/>
<path d="M55.0624 50.4792C54.8904 50.7084 54.7227 51.1359 54.4272 51.2637C54.1007 51.4047 53.536 51.4179 53.2845 51.224C52.5787 50.6643 51.9434 49.9988 51.3478 49.3202C50.9904 48.9103 50.986 48.3242 51.414 47.998C51.7272 47.7601 52.4154 47.5529 52.6316 47.7204C53.4522 48.3594 54.1492 49.1571 54.8771 49.9063C54.9698 49.9988 54.9698 50.1795 55.0624 50.4792Z" fill="#FF7220"/>
<path d="M39.9877 52.6872C39.9789 53.2689 39.4892 53.7625 38.9113 53.7714C38.3069 53.7802 37.7995 53.2645 37.8128 52.6432C37.8216 52.0085 38.3201 51.5458 38.9554 51.5767C39.5554 51.6119 40.001 52.0879 39.9877 52.6872Z" fill="#FF7220"/>
</svg>
